HIERARCHY
ROOT Hips
{
  OFFSET -35.2597 29.1586 114.425
  CHANNELS 6 Xposition Yposition Zposition Zrotation Xrotation Yrotation
  JOINT LeftUpLeg
  {
    OFFSET 8.64259 1.95398 -2.38835
    CHANNELS 3 Zrotation Xrotation Yrotation
    JOINT LeftLeg
    {
      OFFSET 43.7702 0 0
      CHANNELS 3 Zrotation Xrotation Yrotation
      JOINT LeftFoot
      {
        OFFSET 40.6238 0 0
        CHANNELS 3 Zrotation Xrotation Yrotation
        JOINT LeftToeBase
        {
          OFFSET 12.7242 0 0
          CHANNELS 3 Zrotation Xrotation Yrotation
          End Site
          {
            OFFSET 0 0 0
          }
        }
      }
    }
  }
  JOINT RightUpLeg
  {
    OFFSET -8.2249 1.95398 -2.59336
    CHANNELS 3 Zrotation Xrotation Yrotation
    JOINT RightLeg
    {
      OFFSET 43.5653 0 0
      CHANNELS 3 Zrotation Xrotation Yrotation
      JOINT RightFoot
      {
        OFFSET 40.6238 0 0
        CHANNELS 3 Zrotation Xrotation Yrotation
        JOINT RightToeBase
        {
          OFFSET 12.7242 0 0
          CHANNELS 3 Zrotation Xrotation Yrotation
          End Site
          {
            OFFSET 0 0 0
          }
        }
      }
    }
  }
  JOINT Spine
  {
    OFFSET 0.165834 0.87714 6.61349
    CHANNELS 3 Zrotation Xrotation Yrotation
    JOINT Spine1
    {
      OFFSET 7.38963 1.71661e-005 0
      CHANNELS 3 Zrotation Xrotation Yrotation
      JOINT Spine2
      {
        OFFSET 11.9445 1.14441e-005 0
        CHANNELS 3 Zrotation Xrotation Yrotation
        JOINT Spine3
        {
          OFFSET 14.7254 4.19617e-005 0
          CHANNELS 3 Zrotation Xrotation Yrotation
          JOINT Spine4
          {
            OFFSET 10.9679 0 0
            CHANNELS 3 Zrotation Xrotation Yrotation
            JOINT RightShoulder
            {
              OFFSET 2.46616 -1.6653 3.69651
              CHANNELS 3 Zrotation Xrotation Yrotation
              JOINT RightArm
              {
                OFFSET 13.0012 0 0
                CHANNELS 3 Zrotation Xrotation Yrotation
                JOINT RightForeArm
                {
                  OFFSET 28.7848 1.62311e-005 0
                  CHANNELS 3 Zrotation Xrotation Yrotation
                  JOINT RightHand
                  {
                    OFFSET 26.5688 1.62095e-005 0
                    CHANNELS 3 Zrotation Xrotation Yrotation
                    End Site
                    {
                      OFFSET 0 0 0
                    }
                  }
                }
              }
            }
            JOINT LeftShoulder
            {
              OFFSET 2.38034 -1.29275 -3.7523
              CHANNELS 3 Zrotation Xrotation Yrotation
              JOINT LeftArm
              {
                OFFSET 16.3182 6.07031e-005 0
                CHANNELS 3 Zrotation Xrotation Yrotation
                JOINT LeftForeArm
                {
                  OFFSET 27.0901 0 0
                  CHANNELS 3 Zrotation Xrotation Yrotation
                  JOINT LeftHand
                  {
                    OFFSET 24.5451 1.51738e-005 0
                    CHANNELS 3 Zrotation Xrotation Yrotation
                    End Site
                    {
                      OFFSET 0 0 0
                    }
                  }
                }
              }
            }
            JOINT Neck
            {
              OFFSET 5.0226 -0.0266342 0
              CHANNELS 3 Zrotation Xrotation Yrotation
              JOINT Head
              {
                OFFSET 6.69364 2.86102e-005 0
                CHANNELS 3 Zrotation Xrotation Yrotation
                End Site
                {
                  OFFSET 0 0 0
                }
              }
            }
          }
        }
      }
    }
  }
}
MOTION
Frames:	6
Frame Time:	0.0416667
-272.758 85.4693 -267.578 -104.394 30.3479 -81.2792 -171.742 14.6638 97.8637 -37.6286 -78.7468 39.7104 140.849 -25.8047 -101.259 8.29569 -27.8881 19.8415 179.851 24.978 88.6446 -68.1638 -17.037 -6.64502 79.1008 -10.944 -4.60637 25.6463 0.256983 3.31582 -0.570441 8.05206 -90.1846 10.7688 -1.22102 -0.254171 -0.901601 -1.23103 -0.200185 -23.4404 -1.0882 -0.609429 -3.42774 -1.08818 -0.609432 92.851 -29.6418 -101.174 41.8755 7.10293 44.4566 -43.0958 -27.5487 -63.5498 -39.6624 12.3996 -39.23 -84.3595 -49.8034 87.1832 -19.7311 -2.79739 17.8615 54.6307 -17.9527 -104.196 11.7029 -6.55057 -53.5077 10.9065 3.15231 -1.0814 -6.59477 3.34542 -0.246521 
-269.535 88.0234 -265.036 -105.387 29.9415 -79.934 -171.236 5.29496 99.9867 -68.5398 -41.7993 7.61123 131.655 -7.53822 -71.6393 -10.531 -28.0483 3.67635 -179.449 23.2733 89.6842 -60.1939 -17.1479 -6.88776 72.2144 -6.76865 -4.40093 24.499 0.414816 4.19577 -1.41833 7.94677 -90.1965 10.9817 -2.91464 -0.113865 -0.685939 -2.91679 0.0146184 -23.2454 -2.74552 -0.985242 -3.23279 -2.74555 -0.985251 94.5325 -27.8165 -98.2242 42.4504 7.54071 56.4749 -46.4635 -24.0245 -69.1702 -34.6358 12.8504 -45.6899 -84.4355 -45.4779 86.5166 -19.5316 -4.86119 17.271 46.9828 -17.2935 -107.196 12.8198 -7.32727 -55.1391 6.66557 6.7698 -0.761621 -5.17862 6.73759 1.47647 
-267.743 91.7736 -261.549 -108.793 31.8058 -76.4229 -170.577 -4.33993 97.1102 -66.3955 -3.13925 3.99406 105.229 21.6921 -24.4556 -9.56423 -19.9473 -3.33938 -179.32 16.5979 90.147 -46.936 -21.0589 -7.60134 63.838 -1.62275 -2.6208 21.9244 1.06275 5.19178 -1.93932 8.17954 -90.4281 10.5135 -4.05946 -0.492247 -1.15115 -4.07719 -0.312819 -23.73 -3.72365 -1.69112 -3.71735 -3.72363 -1.69112 95.7786 -24.1057 -96.5187 38.65 9.24912 68.3435 -52.1258 -17.4679 -77.9735 -27.0995 11.8965 -52.9234 -84.7634 -41.2972 85.3978 -19.6507 -7.20638 18.3587 46.0999 -17.9472 -108.219 14.5813 -8.206 -55.2917 4.58484 10.0816 -0.389084 -6.0968 9.7983 4.79581 
-264.384 95.1834 -257.763 -108.778 33.996 -75.1111 -171.707 -6.69604 93.8702 -60.4533 15.8165 3.28218 79.1311 15.0567 4.21818 11.3648 -8.35868 -1.39116 179.788 12.5192 89.886 -30.317 -28.0845 -6.78188 55.4776 3.21211 0.211939 14.7451 3.55951 5.93252 -2.07858 8.1674 -90.6509 10.5256 -4.43914 -0.898638 -1.13796 -4.4744 -0.702022 -23.7216 -3.96358 -2.19309 -3.70894 -3.96356 -2.19309 95.8593 -23.1642 -96.564 34.2384 11.8814 72.9709 -51.2592 -15.7076 -78.9516 -25.4736 12.6006 -58.3443 -85.1072 -37.4077 84.1585 -19.6306 -7.236 18.4721 49.2674 -18.8744 -107.359 14.4629 -7.98231 -54.3448 3.68081 11.4151 -1.62343 -8.14188 11.1074 7.20628 
-259.505 97.0852 -254.301 -102.9 35.6653 -77.3362 -172.651 -0.999914 93.6232 -54.9457 18.1159 2.82978 69.5456 7.9184 7.14714 17.7336 -4.52879 -1.91549 -178.551 14.9095 90.6536 -23.2025 -32.4121 -7.82442 58.0884 1.16721 0.449417 16.4305 3.4785 4.54849 -2.01232 7.61354 -90.8519 11.6278 -4.40193 -1.24064 -0.0361432 -4.45224 -1.04535 -22.6144 -3.8254 -2.50774 -2.6018 -3.82542 -2.50775 95.1747 -23.7179 -97.9607 34.0839 12.1794 72.3952 -44.7904 -15.0092 -76.3985 -24.4553 12.764 -61.0323 -85.3181 -34.7013 83.2889 -19.5353 -5.01453 20.5888 52.7367 -20.0017 -106.472 16.1191 -8.59074 -53.4508 4.02417 11.2548 -6.51782 -10.7513 11.3875 10.4482 
-254.307 97.1836 -249.128 -102.2 41.3364 -79.0408 -172.647 2.69848 90.4863 -50.3609 11.2348 0.518821 66.0313 4.42214 4.44984 20.8632 -4.30255 0.51783 -176.775 19.4973 88.9818 -32.0003 -31.4669 -9.39732 63.3895 -2.64591 -1.56485 12.1534 5.02071 5.00365 -1.38906 7.55427 -90.6848 11.7528 -3.0842 -1.0395 0.0852089 -3.12694 -0.902643 -22.4696 -2.62914 -1.91882 -2.45692 -2.62913 -1.91882 94.2426 -26.3231 -99.2644 33.0778 11.8587 69.6128 -43.958 -12.059 -79.0639 -26.7474 14.0612 -61.1722 -85.8086 -37.3709 82.9201 -19.9552 -5.20174 26.4381 55.9506 -21.3228 -105.781 16.0145 -9.00957 -55.8438 6.97986 10.9459 -9.06355 -11.3043 11.5865 11.3455 
